<svg width="480" height="480" xmlns="http://www.w3.org/2000/svg">
 <g>
  <title>Layer 1</title>
  <path id="svg_22" d="m228.0959,423.33353c-99.44751,0 -180,-80.55249 -180,-180c0,-99.44751 80.55249,-180 180,-180c99.44751,0 180,80.55249 180,180c0,99.44751 -80.55249,180 -180,180z" opacity="undefined" stroke-width="0" stroke="#000000" fill="url(#svg_48)"/>
  <path id="svg_24" d="m89.82932,498.79621l0,0c0,-0.41145 0.33355,-0.745 0.745,-0.745l0,0c0.19759,0 0.38708,0.07849 0.52679,0.21821c0.13971,0.13971 0.21821,0.32921 0.21821,0.52679l0,0c0,0.41145 -0.33355,0.745 -0.745,0.745l0,0c-0.41145,0 -0.745,-0.33355 -0.745,-0.745zm0.3725,0l0,0c0,0.20573 0.16677,0.3725 0.3725,0.3725c0.20573,0 0.3725,-0.16677 0.3725,-0.3725c0,-0.20573 -0.16677,-0.3725 -0.3725,-0.3725l0,0c-0.20573,0 -0.3725,0.16677 -0.3725,0.3725z" stroke-width="6" stroke="#000000" fill="none"/>
  <line stroke="#dcdcdc" id="svg_34" y2="243.4139" x2="410.2936" y1="243.4139" x1="47.41983" stroke-width="30" fill="none"/>
  <line stroke="#dcdcdc" id="svg_35" y2="325.31618" x2="425.53123" y1="325.31618" x1="62.65746" stroke-width="30" fill="none"/>
  <line stroke="#dcdcdc" id="svg_38" y2="165.32104" x2="413.15066" y1="165.32104" x1="50.27689" stroke-width="30" fill="none"/>
  <path stroke="#000000" id="svg_39" d="m229.07725,414.29262c-94.97211,0 -171.89953,-76.92741 -171.89953,-171.89953c0,-94.97211 76.92741,-171.89953 171.89953,-171.89953c94.97211,0 171.89953,76.92741 171.89953,171.89953c0,94.97211 -76.92741,171.89953 -171.89953,171.89953z" opacity="undefined" stroke-width="20" fill="none"/>
  <path transform="rotate(90 228.294 316.035)" stroke="#000000" id="svg_45" d="m231.05187,233.10176l32.59289,0c-3.60011,0 -38.99328,38.79889 -38.99328,84.60185c0,45.80296 35.39317,81.26534 38.99328,81.26534l-32.59289,0l0,0c-3.60011,0 -38.10819,-37.96476 -38.10819,-83.76772c0,-45.80296 34.50808,-82.09947 38.10819,-82.09947z" stroke-width="0" fill="#000000"/>
  <path id="svg_49" d="m130.46843,185.42885l18.18329,-18.1833l19.31583,19.31568l19.31583,-19.31568l18.18346,18.1833l-19.31584,19.31583l19.31584,19.31583l-18.18346,18.18347l-19.31583,-19.31584l-19.31583,19.31584l-18.18329,-18.18347l19.31567,-19.31583l-19.31567,-19.31583z" stroke-width="0" stroke="#000000" fill="#000000"/>
  <path id="svg_50" d="m242.00456,185.42885l18.1833,-18.1833l19.31583,19.31568l19.31583,-19.31568l18.18347,18.1833l-19.31584,19.31583l19.31584,19.31583l-18.18347,18.18347l-19.31583,-19.31584l-19.31583,19.31584l-18.1833,-18.18347l19.31568,-19.31583l-19.31568,-19.31583z" stroke-width="0" stroke="#000000" fill="#000000"/>
 </g>
 <defs>
  <radialGradient gradientTransform="rotate(2,0.296875,0.2718750238418579) translate(0,0.005437500476837163) scale(1,0.98)" r="0.60272" cy="0.27188" cx="0.29688" spreadMethod="pad" id="svg_48">
   <stop stop-opacity="0.98438" offset="0" stop-color="#e0e0e0"/>
   <stop stop-opacity="0.98828" offset="1" stop-color="#939393"/>
  </radialGradient>
 </defs>
</svg>