<svg width="479.99999999999994" height="479.99999999999994" xmlns="http://www.w3.org/2000/svg">
 <g>
  <title>Layer 1</title>
  <path fill="url(#svg_48)" stroke="#000000" stroke-width="0" opacity="undefined" d="m228.0959,423.33353c-99.44751,0 -180,-80.55249 -180,-180c0,-99.44751 80.55249,-180 180,-180c99.44751,0 180,80.55249 180,180c0,99.44751 -80.55249,180 -180,180z" id="svg_22"/>
  <path fill="none" stroke="#000000" stroke-width="6" d="m89.82932,498.79621l0,0c0,-0.41145 0.33355,-0.745 0.745,-0.745l0,0c0.19759,0 0.38708,0.07849 0.52679,0.21821c0.13971,0.13971 0.21821,0.32921 0.21821,0.52679l0,0c0,0.41145 -0.33355,0.745 -0.745,0.745l0,0c-0.41145,0 -0.745,-0.33355 -0.745,-0.745zm0.3725,0l0,0c0,0.20573 0.16677,0.3725 0.3725,0.3725c0.20573,0 0.3725,-0.16677 0.3725,-0.3725c0,-0.20573 -0.16677,-0.3725 -0.3725,-0.3725l0,0c-0.20573,0 -0.3725,0.16677 -0.3725,0.3725z" id="svg_24"/>
  <line stroke="#dcdcdc" fill="none" stroke-width="30" x1="52.41984" y1="243.4139" x2="410.2936" y2="243.4139" id="svg_34"/>
  <line fill="none" stroke-width="30" x1="83.56649" y1="325.31618" x2="377.34956" y2="325.31618" id="svg_35" stroke="#dcdcdc"/>
  <line fill="none" stroke-width="30" x1="73.27686" y1="165.32104" x2="380.87804" y2="165.32104" id="svg_38" stroke="#dcdcdc"/>
  <path fill="none" stroke-width="20" opacity="undefined" d="m229.07725,414.29262c-94.97211,0 -171.89953,-76.92741 -171.89953,-171.89953c0,-94.97211 76.92741,-171.89953 171.89953,-171.89953c94.97211,0 171.89953,76.92741 171.89953,171.89953c0,94.97211 -76.92741,171.89953 -171.89953,171.89953z" id="svg_39" stroke="#000000"/>
  <path transform="rotate(-180 167.826 202.574)" stroke="null" id="svg_7" d="m217.16271,221.88469c9.33022,-83.10431 -47.39924,-62.83284 -66.08315,-51.50665c-37.60181,21.31322 -41.77124,47.33824 -21.87445,63.71043c10.98467,6.05685 19.34921,9.61727 33.53623,10.88929c14.18703,1.27203 45.84148,1.25425 52.9445,-14.82386" stroke-width="20" fill="#000000"/>
  <path transform="rotate(-180 290.446 202.574)" stroke="null" id="svg_5" d="m240.65709,221.88393c-9.41561,-83.10431 47.83309,-62.83285 66.68801,-51.50665c37.94598,21.31322 42.15357,47.33823 22.07466,63.71043c-11.0852,6.05685 -19.5263,9.61727 -33.84318,10.88929c-14.31688,1.27203 -46.26107,1.25424 -53.4291,-14.82386" stroke-width="20" fill="#000000"/>
  <path fill="#000000" stroke-width="0" d="m223.35973,238.87086l32.59289,0c-3.60011,0 -31.30114,33.40096 -31.30114,72.83154c0,39.43058 27.70103,69.95922 31.30114,69.95922l-32.59289,0l0,0c-3.60011,0 -30.41605,-32.68288 -30.41605,-72.11346c0,-39.43058 26.81593,-70.67731 30.41605,-70.67731l0,0.00001z" id="svg_45" stroke="#000000" transform="rotate(-90 224.448 310.266)"/>
  <path transform="rotate(90 229.383 213.579)" stroke="#000000" fill="#000000" stroke-width="0" d="m250.40165,45.366l22.17437,0c-2.44931,0 -68.5984,77.78611 -68.5984,170.68754c0,92.90143 66.14909,165.73831 68.5984,165.73831l-22.17437,0l0,0c-2.44931,0 -64.21131,-75.74798 -64.21131,-168.64942c0,-92.90143 61.76199,-167.77645 64.21131,-167.77645l0,0.00002z" id="svg_3"/>
  <path stroke="#000000" id="svg_9" d="m84.67809,166.21677l37.52721,0l11.5962,-34.1547l11.5962,34.1547l37.5272,0l-30.36009,21.10852l11.5968,34.1547l-30.36011,-21.1091l-30.3601,21.1091l11.5968,-34.1547l-30.3601,-21.10852z" stroke-width="0" fill="#ffffff"/>
 </g>
 <defs>
  <radialGradient id="svg_48" spreadMethod="pad" cx="0.29688" cy="0.27188" r="0.60272" gradientTransform="rotate(2,0.296875,0.2718750238418579) translate(0,0.005437500476837163) scale(1,0.98)">
   <stop stop-color="#e0e0e0" offset="0" stop-opacity="0.98438"/>
   <stop stop-color="#939393" offset="1" stop-opacity="0.98828"/>
  </radialGradient>
 </defs>
</svg>